<?xml version="1.0" encoding="utf-8"?>
<svg xmlns="http://www.w3.org/2000/svg" viewBox="0 0 100 100" xmlns:bx="https://boxy-svg.com" width="100px" height="100px" style="color-scheme: light dark;"><defs><bx:export><bx:file format="svg"/></bx:export></defs><path d="M 8.333 0 L 32.778 0 L 49.445 16.6667 L 16.667 16.6667 L 16.667 83.3333 L 83.333 83.3333 L 83.333 50.5547 L 100 67.2212 L 100 91.6667 C 100 96.2692 96.269 100 91.667 100 L 8.333 100 C 3.731 100 0 96.2692 0 91.6667 L 0 8.33333 C 0 3.73092 3.731 0 8.333 0 Z M 100 50 L 80.892 30.8926 L 48.037 63.7478 C 44.783 67.0022 39.506 67.0028 36.252 63.7483 C 32.997 60.4938 32.998 55.217 36.252 51.9626 L 69.108 19.1074 L 50 0 L 91.667 0 C 96.269 0 100 3.73083 100 8.33333 L 100 50 Z" style="fill: light-dark(#8f0bc2, #edb1ff)"/></svg>