<?xml version="1.0" encoding="utf-8"?>
<svg width="25px" height="25px" xmlns="http://www.w3.org/2000/svg" xmlns:bx="https://boxy-svg.com" viewBox="0 0 25 25"><defs><bx:export><bx:file format="svg"/></bx:export></defs><path fill-rule="evenodd" clip-rule="evenodd" d="M 12.51 0 C 5.592 0 0 5.729 0 12.817 C 0 18.482 3.584 23.278 8.554 24.976 C 9.176 25.103 9.404 24.7 9.404 24.36 C 9.404 24.063 9.382 23.045 9.382 21.983 C 5.902 22.747 5.177 20.456 5.177 20.456 C 4.619 18.97 3.79 18.588 3.79 18.588 C 2.651 17.804 3.874 17.804 3.874 17.804 C 5.136 17.889 5.8 19.118 5.8 19.118 C 6.917 21.071 8.72 20.52 9.445 20.18 C 9.549 19.352 9.88 18.78 10.232 18.461 C 7.456 18.163 4.536 17.061 4.536 12.137 C 4.536 10.737 5.032 9.591 5.82 8.7 C 5.696 8.382 5.261 7.066 5.945 5.305 C 5.945 5.305 7.001 4.965 9.382 6.62 C 10.402 6.34 11.454 6.197 12.51 6.196 C 13.566 6.196 14.644 6.345 15.637 6.62 C 18.02 4.965 19.076 5.305 19.076 5.305 C 19.76 7.066 19.325 8.382 19.2 8.7 C 20.009 9.591 20.485 10.737 20.485 12.137 C 20.485 17.061 17.564 18.142 14.767 18.461 C 15.224 18.865 15.617 19.628 15.617 20.837 C 15.617 22.556 15.596 23.936 15.596 24.36 C 15.596 24.7 15.825 25.103 16.446 24.976 C 21.416 23.277 25 18.482 25 12.817 C 25.02 5.729 19.407 0 12.51 0 Z" fill="#edb1ff"/></svg>