<svg xmlns="http://www.w3.org/2000/svg" viewBox="0 0 100 100" style="color-scheme: light dark;">
  <path style="fill: light-dark(#8f0bc2, #edb1ff)" d="M 8.35 21.7 C 3.73842 21.7 0 17.9616 0 13.35 C 0 8.73842 3.73842 5 8.35 5 C 8.35 5 91.65 5 91.65 5 C 96.2616 5 100 8.73842 100 13.35 C 100 17.9616 96.2616 21.7 91.65 21.7 L 8.35 21.7 Z"/>
  <path style="fill: light-dark(#8f0bc2, #edb1ff)" d="M 8.35 58.35 C 3.73842 58.35 0 54.61158 0 50 C 0 45.38842 3.73842 41.65 8.35 41.65 C 8.35 41.65 91.65 41.65 91.65 41.65 C 96.26158 41.65 100 45.38842 100 50 C 100 54.61158 96.26158 58.35 91.65 58.35 Z"/>
  <path style="fill: light-dark(#8f0bc2, #edb1ff)" d="M 8.35 95 C 3.73842 95 0 91.2616 0 86.65 C 0 82.0384 3.73842 78.3 8.35 78.3 C 8.35 78.3 91.65 78.3 91.65 78.3 C 96.2616 78.3 100 82.0384 100 86.65 C 100 91.2616 96.2616 95 91.65 95 L 8.35 95 Z"/>
</svg>