<?xml version="1.0" encoding="utf-8"?>
<svg viewBox="0 0 100 100" xmlns="http://www.w3.org/2000/svg">
  <defs>
    <radialGradient gradientUnits="userSpaceOnUse" cx="6.013" cy="33.085" r="41.331" id="gradient-1" gradientTransform="matrix(2.080905, 1.805995, -0.999269, 1.151378, 21.506496, -43.280647)">
      <stop offset="0" style="stop-color: rgb(237, 177, 255);"/>
      <stop offset="0.63" style="stop-color: rgb(143, 11, 194);"/>
      <stop offset="1" style="stop-color: rgb(26, 9, 94);"/>
    </radialGradient>
  </defs>
  <path style="fill: url('#gradient-1');" d="M 34.608 9.99 L 79.969 9.973 C 83.902 12.923 87.386 16.439 90.301 20.4 L 78.226 20.406 C 77.2 27.589 69.819 55.758 68.013 66.918 C 66.439 76.658 69.979 77.141 70.194 77.217 C 73.407 78.36 77.323 76.461 83.011 69.946 L 87.617 74.198 C 82.502 79.352 76.138 86.556 66.182 86.587 C 58.688 86.608 54.586 80.59 54.644 73.135 C 54.688 67.542 57.873 47.441 66.704 21.159 L 66.278 20.37 L 43.128 20.36 C 39.781 35.275 33.261 69.119 28.257 85.325 L 11.533 85.309 L 12.321 81.399 C 23.222 71.846 30.835 27.214 32.983 20.379 C 23.805 20.317 19.447 21.274 12.541 29.85 L 7.64 25.695 C 16.384 14.753 21.522 10.17 34.608 9.99 Z"/>
</svg>